<svg xmlns="http://www.w3.org/2000/svg" xmlns:xlink="http://www.w3.org/1999/xlink" width="500" zoomAndPan="magnify" viewBox="0 0 375 374.999991" height="500" preserveAspectRatio="xMidYMid meet" version="1.0"><defs><g/></defs><rect x="-37.5" width="450" fill="#ffffff" y="-37.499999" height="449.999989" fill-opacity="1"/><rect x="-37.5" width="450" fill="#ffffff" y="-37.499999" height="449.999989" fill-opacity="1"/><rect x="-37.5" width="450" fill="#222831" y="-37.499999" height="449.999989" fill-opacity="1"/><g fill="#00adb5" fill-opacity="1"><g transform="translate(49.119175, 216.374986)"><g><path d="M 69.613281 0 L 69.613281 -85.816406 L 52.449219 -85.816406 L 52.449219 -51.488281 L 26.765625 -51.488281 L 26.765625 -85.816406 L 9.601562 -85.816406 L 9.601562 0 L 26.765625 0 L 26.765625 -34.328125 L 52.449219 -34.328125 L 52.449219 0 Z M 69.613281 0 "/></g></g></g><g fill="#00adb5" fill-opacity="1"><g transform="translate(139.729711, 216.374986)"><g><path d="M 40.925781 0 L 40.925781 -68.652344 L 62.292969 -68.652344 L 62.292969 -85.695312 L 2.402344 -85.695312 L 2.402344 -68.652344 L 23.765625 -68.652344 L 23.765625 0 Z M 40.925781 0 "/></g></g></g><g fill="#00adb5" fill-opacity="1"><g transform="translate(216.658917, 216.374986)"><g><path d="M 35.886719 1.800781 L 38.886719 1.800781 L 54.488281 -36.605469 L 70.214844 1.441406 L 73.332031 1.441406 L 108.378906 -85.816406 L 89.058594 -85.816406 L 71.773438 -42.007812 L 54.96875 -84.976562 L 54.128906 -84.976562 L 37.328125 -42.007812 L 20.042969 -85.816406 L 0.71875 -85.816406 Z M 35.886719 1.800781 "/></g></g></g></svg>